# xmcd CD database file
#
# Track frame offsets:
#	183
#	28785
#	47790
#
# Disc length: 941 seconds
#
# Revision: 1
# Processed by: cddbd v1.4PL0 Copyright (c) Steve Scherf et al.
# Submitted via: CDex 1.40Beta8
#
DISCID=2003ab03
DTITLE=Izzy Stradlin and the Ju JU Hounds - Shuffle It All
DYEAR=1992
DGENRE=Alternative Rock
TTITLE0=Shuffle It All
TTITLE1=Been A Fix
TTITLE2=How Much
EXTD=YEAR: 1992
EXTT0=
EXTT1=
EXTT2=
PLAYORDER=
